<?xml version="1.0" standalone="no"?>
<!DOCTYPE svg PUBLIC "-//W3C//DTD SVG 20010904//EN"
 "http://www.w3.org/TR/2001/REC-SVG-20010904/DTD/svg10.dtd">
<svg version="1.0" xmlns="http://www.w3.org/2000/svg"
 width="512.000000pt" height="512.000000pt" viewBox="0 0 512.000000 512.000000"
 preserveAspectRatio="xMidYMid meet">

<g transform="translate(0.000000,512.000000) scale(0.100000,-0.100000)"
fill="#000000" stroke="none">
<path d="M2320 4694 c-14 -2 -59 -9 -100 -14 -240 -34 -441 -96 -680 -212
-135 -65 -337 -194 -427 -273 -113 -98 -212 -195 -263 -259 -36 -43 -74 -88
-84 -100 -10 -11 -42 -57 -71 -101 -126 -193 -217 -382 -257 -535 -5 -19 -13
-48 -18 -65 -45 -154 -57 -226 -69 -415 -19 -286 14 -525 111 -815 61 -183
195 -425 322 -583 218 -273 480 -482 811 -649 115 -58 129 -53 71 26 -30 41
-119 172 -313 460 -35 51 -63 100 -63 107 0 32 41 9 122 -69 47 -45 126 -120
175 -166 121 -115 509 -487 613 -588 123 -118 189 -143 276 -104 76 35 115
113 94 190 -13 49 -19 56 -330 351 -322 307 -504 483 -515 500 -5 8 -12 83
-15 165 l-5 150 -60 85 c-67 96 -174 252 -282 414 -89 133 -98 176 -26 124 31
-24 318 -297 623 -593 96 -94 310 -299 475 -455 165 -156 356 -339 425 -406
69 -66 163 -156 209 -200 46 -43 124 -121 175 -171 50 -51 97 -93 104 -93 9 0
12 28 12 106 l0 105 38 15 c20 8 59 24 85 36 l48 22 -68 68 c-37 37 -73 67
-78 68 -6 0 -15 10 -20 22 -6 12 -128 135 -272 273 -922 882 -1324 1268 -1360
1305 -22 24 -23 31 -23 176 l0 151 -42 59 c-48 67 -223 327 -308 454 -59 89
-82 135 -73 143 10 11 72 -36 140 -106 38 -39 218 -213 399 -386 181 -173 444
-426 584 -561 333 -321 467 -449 748 -715 128 -121 235 -229 237 -240 3 -11 6
-88 7 -171 l3 -150 110 -165 c88 -131 114 -163 130 -161 25 4 219 133 322 215
117 92 289 268 379 390 74 98 196 307 254 432 43 94 94 272 136 470 24 114 24
512 0 640 -65 353 -184 645 -358 883 -259 353 -552 583 -978 765 -88 37 -262
90 -360 108 -30 6 -89 17 -130 25 -72 14 -531 28 -590 18z m340 -362 c52 -23
688 -632 718 -687 13 -24 17 -72 22 -236 l5 -206 115 -174 c63 -96 140 -210
171 -254 74 -105 84 -124 70 -138 -13 -13 -38 4 -111 73 -30 29 -91 87 -135
129 -83 78 -445 424 -595 567 -99 95 -132 114 -195 114 -66 0 -112 -25 -146
-79 -51 -80 -30 -161 64 -247 29 -26 102 -95 162 -153 115 -111 467 -446 545
-518 l45 -42 5 -173 5 -173 193 -289 c178 -267 215 -336 181 -336 -12 0 -87
72 -125 120 -19 24 -115 117 -359 350 -61 58 -220 211 -355 340 -135 129 -299
287 -365 350 -66 63 -174 167 -240 231 -66 64 -160 154 -209 200 -50 46 -155
147 -234 224 -79 77 -147 142 -151 145 -17 11 -31 51 -31 87 0 75 39 129 207
289 87 82 229 219 316 304 87 85 170 161 185 169 76 41 169 46 242 13z"/>
</g>
</svg>
